<?xml version="1.0" standalone="yes"?>
<svg xmlns="http://www.w3.org/2000/svg" width="630" height="175">
<path style="fill:none; stroke:none;" d="M0 0L0 175L630 175L630 0L0 0z"/>
<path style="fill:#000000; stroke:none;" d="M349 30C356.704 29.2109 363.5 24.4093 371 22.4784C390.464 17.4672 413.342 17.7884 431 28.3519C448.284 38.6918 447.238 57.6411 435.985 71.9992C433.353 75.3565 428.63 81.8671 424 82.3843C419.242 82.9157 411.573 74.4602 407 72.4398C395.662 67.4304 383.26 66 371 66L396 23C380.63 23.3715 369.561 52.9784 366 66C342.869 66.48 326.606 93.2939 355 101.961C368.806 106.175 386.23 104.763 400 100.989C407.549 98.9205 417.353 92.1228 425 94L426 89C448.212 77.6612 461.119 45.0954 439 27.3789C424.092 15.4377 402.224 14.2413 384 15.0394C373.921 15.4807 349.975 17.1865 349 30M17 33C23.4592 33.9553 30.6551 30.1053 37 28.6512C52.6089 25.0742 77.3141 20.7328 91.9846 29.3673C101.409 34.9144 97.6581 45.5476 90.9066 51.6744C81.4679 60.2397 64.5934 65.9899 52 63L71 31C57.1338 31.3352 50.6198 50.9037 46 62L37 58L37 57L44 52C37.6799 52.2937 33.5107 54.2489 33 61L44 65C40.2541 74.6551 35.6508 83.9444 33.0147 94C31.8113 98.5901 30.6814 104.235 36 106C36.041 91.1564 44.478 79.2633 50 66C64.2532 70.213 84.6212 65.7326 95.9097 56.1806C102.581 50.5354 107.958 40.4722 102.91 32.0401C99.1016 25.6768 90.7197 24.1015 84 22.8048C68.2747 19.7703 50.6968 19.8175 35 23.0039C27.7255 24.4806 20.699 26.0412 17 33M242 61L229 61L229 63L239 65C231.807 78.6511 229.942 91.9456 211 92L210 81C218.44 78.305 230.419 68.6552 226 59C213.687 59.2895 203.719 71.8947 203.463 84C203.219 95.5532 214.647 96.7589 223 92.6227C227.022 90.6312 230.603 87.8954 234 85C234.909 104.564 255.609 92.1521 264 85C264.883 103.991 284.319 92.6719 293 86L294 97C302.021 96.9274 306.734 93.7632 311 87C318.91 89.3372 326.399 86.6527 330 79L312 85C315.407 78.6028 318.976 70.4186 317.67 63C316.557 56.682 311.044 52.7533 305.185 56.8935C299.13 61.1726 300.313 68.0115 297.786 74C293.444 84.2905 283.137 91.9004 272 92C268.431 82.2077 272.245 74.1559 276 65L291 63L291 62L278 61L293 37C281.269 37.1385 274.924 50.8509 272 61L248 61L263 37C251.269 37.1385 244.924 50.8509 242 61M93 84C99.4237 80.9392 103.611 73.5249 106 67L115 71C108.349 81.4932 106.662 106.605 126 95.6327C129.06 93.8965 131.505 91.4366 134 89L136 97C144.021 96.9274 148.734 93.7632 153 87L166 86C166.193 102.373 181.323 90.6843 185 82L186 82L184 95C165.764 97.3549 146.424 107.36 134.105 121C128.048 127.706 123.346 140.086 130.279 147.892C137.726 156.278 151.81 153.345 160 147.776C175.67 137.121 186.495 116.591 189 98L198 99C196.072 95.5017 193.878 95.1254 190 95C192.01 85.2541 193.028 72.0711 199 64L199 62C178.488 48.4615 172.911 86.5634 154 85C157.407 78.6028 160.976 70.4186 159.67 63C158.557 56.682 153.044 52.7534 147.185 56.8935C136.011 64.7905 137.549 100.173 115 93C115.205 83.1276 120.114 74.3704 125 66L125 65L123 62L110 67L108 64L108 63C113.155 57.8849 114.858 52.7833 112 46C103.948 48.3907 106.258 56.6056 104.034 63C101.416 70.5255 96.1307 76.7438 93 84M454 97C462.021 96.9274 466.734 93.7632 471 87L484 86L482 96L503 73C497.462 90.4708 506.599 103.924 523 89L522 96L543 73C537.856 89.2288 545.349 104.053 562 90C565.881 102.786 579.473 86.9692 582 81L583 81C583.19 103.671 605.21 93.0001 610 78C605.062 80.6378 600.851 90.5714 595.043 90.6543C584.43 90.8058 591.88 67.5445 596 64C592.294 57.6524 584.74 58.0493 579 61.8542C569.068 68.4374 567.084 80.132 558.957 87.8951C549.841 96.6024 543.997 89.0445 547.927 79C550.063 73.5399 553.391 68.9478 554 63L553 62C544.373 63.3312 534.854 75.5717 531 83L530 83L536 62C532.608 62.5364 530.584 63.5931 529.343 67.0193C526.168 75.7921 525.689 82.2792 517.999 88.7863C507.127 97.987 504.903 85.5565 508.792 77C510.928 72.3006 513.466 68.2149 514 63L513 62C504.373 63.3312 494.853 75.5718 491 83L490 83L496 62C486.867 63.4442 489.315 73.4469 485.697 79.9059C482.77 85.1301 477.3 85.4381 472 85C475.124 79.1341 484.535 50.7357 468.015 55.5185C460.337 57.7411 460.267 65.7688 458.505 72C456.021 80.7874 449.481 87.5959 454 97z"/>
<path style="fill:#83d3c9; stroke:none;" d="M145 67L152 67L152 69C144.723 72.9019 145.888 78.4452 152 83C154.552 77.0687 156.762 68.3581 154.106 62.0594C150.849 54.3328 145.505 62.473 145 67M303 67L310 67L310 69C302.723 72.9019 303.888 78.4452 310 83C312.552 77.0687 314.762 68.3581 312.106 62.0594C308.849 54.3328 303.505 62.473 303 67M463 67L470 67L470 69C462.723 72.9019 463.888 78.4452 470 83C472.552 77.0686 474.762 68.3581 472.106 62.0594C468.849 54.3328 463.505 62.473 463 67M221 63L212 77C217.754 74.0147 222.261 69.6314 223 63L221 63M171 91C181.973 89.5293 189.357 73.6578 192 64C179.882 66.1615 171.252 79.1596 171 91M246 65C241.485 72.9418 237.812 83.2983 242 92C260.101 91.948 263.483 79.3018 269 65L246 65M568 91C578.101 88.9564 586.304 73.5116 588 64C577.545 65.8937 565.238 79.9421 568 91M363 70C357.686 72.0375 352.111 73.2737 348.434 78.0432C340.382 88.4871 350.897 97.9873 361 99.6744C381.717 103.134 400.657 96.5622 419 88C411.41 72.0714 384.204 70 369 70L360 98L358 98L357 97L363 70M143 79L141 94C145.597 92.2138 148.389 89.7002 150 85L143 79M301 79L299 94C303.597 92.2137 306.389 89.7002 308 85L301 79M461 79L459 94C463.597 92.2137 466.389 89.7002 468 85L461 79M186 81L187 82L186 81M184 98C167.626 100.207 147.103 110.784 137.043 124.004C132.308 130.227 127.918 140.938 134.419 147.606C140.987 154.342 152.687 150.329 159 145.471C174.382 133.634 179.02 115.681 184 98z"/>
<path style="fill:#000000; stroke:none;" d="M222 152L215 160C209.072 156.48 202.624 137.152 214.576 137.145C217.979 137.143 219.646 141.211 222 143C219.188 129.113 206.079 137.005 206.079 148C206.079 160.035 219.722 166.299 222 152M225 135L225 161L238 161L238 159L227 159L227 149L237 148L237 147L227 147L227 137L237 137L237 135L225 135M240 135L240 161L242 161L242 139L243 139C244.08 145.061 248.914 158.884 255 161L255 135L253 135L253 157L252 157L242 135L240 135M257 135L257 137L264 137L264 161L266 161L266 137L273 136L257 135M274 135L274 161L276 161L276 149C287.171 149.132 282.33 156.676 289 161L285 149L285 147C294.023 138.156 280.913 135.001 274 135M297.044 135.747C287.165 139.574 289.792 164.786 301.956 160.242C312.041 156.475 309.513 130.917 297.044 135.747M320 135L320 161L333 161L333 159L322 159L322 149L332 148L332 147L322 147L322 137L332 137L332 135L320 135M334 153C335.491 160.361 346.95 164.835 348.623 154.985C349.877 147.605 340.672 148.102 337.662 143.723C335.486 140.557 338.859 136.505 342.407 137.237C345.002 137.772 346.874 140.592 349 142C346.755 134.625 333.733 132.275 334.662 141.988C335.264 148.287 343.595 147.281 345.914 152.133C347.486 155.422 344.152 159.521 340.594 158.762C337.645 158.134 336.222 154.689 334 153M351 135L351 137L358 137L358 161L360 161L360 137L367 136L351 135M368 135L368 161L381 161L381 159L370 159L370 149L380 148L380 147L370 147L370 137L380 137L380 135L368 135M381 135L381 137L388 137L388 161L390 161L390 137L397 136L381 135M399 135L399 161L401 161L401 135L399 135M420 152L413 160C407.072 156.48 400.624 137.152 412.576 137.145C415.979 137.143 417.646 141.211 420 143C417.188 129.113 404.079 137.005 404.079 148C404.079 160.035 417.722 166.299 420 152M428.044 135.747C418.165 139.574 420.792 164.786 432.956 160.242C443.041 156.475 440.513 130.917 428.044 135.747M457 135L449 161L453 153L463 153L467 161L459 135L457 135M477 135L477 161C485.356 160.999 498.217 156.443 488 147C495.135 137.071 485.249 135.001 477 135M500.044 135.747C490.165 139.574 492.792 164.786 504.956 160.242C515.041 156.475 512.513 130.917 500.044 135.747M514 135L514 161L526 161L526 159L516 159L516 135L514 135M534.044 135.747C524.165 139.574 526.792 164.786 538.956 160.242C549.041 156.475 546.513 130.917 534.044 135.747M562 157L563 157L563 161L564 161L564 148L556 148L556 149L562 149L563 150C562.724 151.737 562.54 153.388 561.683 154.969C551.9 173.009 543.263 131.089 558.228 137.506C560.7 138.566 561.932 141.428 564 143C562.721 136.681 555.801 131.771 550.728 138.228C547.504 142.331 547.504 149.237 548.943 153.999C550.883 160.417 558.171 163.553 562 157M567 135L567 161L569 161L569 139L570 139C571.08 145.061 575.914 158.884 582 161L582 135L580 135L580 157L579 157L569 135L567 135M592 135L584 161L588 153L598 153L602 161L594 135L592 135z"/>
<path style="fill:#ffffff; stroke:none;" d="M276 136L276 148C283.54 147.65 286.782 144.595 285 137L276 136M299.04 136.917C290.355 137.685 290.291 159.917 299.989 159.083C309.009 158.308 308.687 136.064 299.04 136.917M430.04 136.917C421.355 137.685 421.291 159.917 430.989 159.083C440.009 158.308 439.687 136.064 430.04 136.917M479 136L479 147L489 145L489 138L479 136M502.04 136.917C493.355 137.685 493.291 159.917 502.989 159.083C512.009 158.308 511.687 136.064 502.04 136.917M536.04 136.917C527.355 137.685 527.291 159.917 536.989 159.083C546.009 158.308 545.687 136.064 536.04 136.917M457 139L454 152L462 152L457 139M592 139L589 152L597 152L592 139M479 148L479 160C492.117 159.719 492.117 148.281 479 148z"/>
</svg>
